<svg xmlns="http://www.w3.org/2000/svg" width="276.664" height="100" viewBox="0 0 276.664 100">
  <g id="Group_5" data-name="Group 5" transform="translate(-672 -490)">
    <g id="Group_3" data-name="Group 3" transform="translate(615 440)">
      <g id="Group_2" data-name="Group 2">
        <g id="Group_1" data-name="Group 1">
          <path id="Path_1" data-name="Path 1" d="M68.339,72.3,57,65.63,68.268,59l11.339,6.671L68.339,72.3Zm20.054,48.671L68.368,109.19V72.339L57,65.651v50.241l11.368,6.689v-.013L99.7,141v-.038l.065.038V90.758L88.393,84.07ZM111,84.09,99.661,77.418l-11.268,6.63L99.732,90.72Z" fill="#5c258d"/>
          <path id="Path_2" data-name="Path 2" d="M131.6,122.471v-.233l-.2.116.2.117Z" fill="#4389a2"/>
          <path id="Path_3" data-name="Path 3" d="M120.2,65.622l11.466,6.66v36.473l-.172.1v.171l.061.036L111,121V107.68l9.2-5.342Zm22.8.021L131.563,59,120.2,65.6l11.437,6.643L143,65.643Z" fill="#4389a2"/>
        </g>
      </g>
    </g>
    <g id="Path_4" data-name="Path 4" transform="translate(765 490)" fill="#767676">
      <path d="M 2.5 99.5 L 0.5 99.5 L 0.5 0.5 L 2.5 0.5 L 2.5 99.5 Z" stroke="none"/>
      <path d="M 1 1 L 1 99 L 2 99 L 2 1 L 1 1 M 0 0 L 3 0 L 3 100 L 0 100 L 0 0 Z" stroke="none" fill="#707070"/>
    </g>
    <path id="Path_5" data-name="Path 5" d="M55.925,92H46.006V66.185H17.991V92H8.113V32.483h9.878V57.51H46.006V32.483h9.919Zm56.2-2.49Q105.4,93,95.4,93,82.446,93,74.644,84.82t-7.8-21.458q0-14.277,8.778-23.076t22.184-8.8q8.633,0,14.319,2.449v9.795A25.551,25.551,0,0,0,98.84,40.162q-9.67,0-15.668,6.184t-6,16.519q0,9.836,5.6,15.668t14.734,5.831a26.381,26.381,0,0,0,14.609-3.984ZM146.86,93q-12.866,0-20.607-8.342t-7.74-21.707q0-14.36,7.886-22.91t21.416-8.55q12.534,0,20.192,8.3t7.657,21.707q0,14.568-7.844,23.035T146.86,93Zm.457-52.834a16.559,16.559,0,0,0-13.3,6.1q-5.126,6.1-5.126,16.062,0,9.919,4.98,15.979a16.059,16.059,0,0,0,13.032,6.06q8.55,0,13.489-5.769t4.939-16.145q0-10.667-4.794-16.477T147.317,40.162Z" transform="translate(773 481)" fill="#707070"/>
  </g>
</svg>
