<svg xmlns="http://www.w3.org/2000/svg" width="251.16" height="82" viewBox="0 0 251.16 82">
  <g id="Group_7" data-name="Group 7" transform="translate(-672 -801)">
    <g id="Group_6" data-name="Group 6" transform="translate(615 742)">
      <g id="Group_2" data-name="Group 2">
        <g id="Group_1" data-name="Group 1">
          <path id="Path_1" data-name="Path 1" d="M68.339,72.3,57,65.63,68.268,59l11.339,6.671L68.339,72.3Zm20.054,48.671L68.368,109.19V72.339L57,65.651v50.241l11.368,6.689v-.013L99.7,141v-.038l.065.038V90.758L88.393,84.07ZM111,84.09,99.661,77.418l-11.268,6.63L99.732,90.72Z" fill="#5c258d"/>
          <path id="Path_2" data-name="Path 2" d="M131.6,122.471v-.233l-.2.116.2.117Z" fill="#4389a2"/>
          <path id="Path_3" data-name="Path 3" d="M120.2,65.622l11.466,6.66v36.473l-.172.1v.171l.061.036L111,121V107.68l9.2-5.342Zm22.8.021L131.563,59,120.2,65.6l11.437,6.643L143,65.643Z" fill="#4389a2"/>
        </g>
      </g>
    </g>
    <path id="Path_6" data-name="Path 6" d="M-64.94,0h-7.82V-53.805h7.82V-31.2h25.925v-22.61h7.905V0h-7.905V-24.65H-64.94ZM20.57-5.185Q13.43,1.02,5.015,1.02q-12.24,0-18.955-9.435A30.338,30.338,0,0,1-19.21-26.35q0-11.9,6.545-20.315,6.46-8.16,16.405-8.16A25.207,25.207,0,0,1,19.89-48.96L16.745-44.2A20.705,20.705,0,0,0,5.27-48.025,14.007,14.007,0,0,0-6.885-41.65q-4,5.78-4,15.3,0,9.435,5.015,15.13a15.044,15.044,0,0,0,11.9,5.27q5.525,0,11.39-4ZM52.615,1.02Q40.63,1.02,34.17-8.415q-5.1-7.48-5.1-18.19,0-12.58,6.715-20.57a20.827,20.827,0,0,1,16.83-7.65q11.9,0,18.445,9.775,5.1,7.65,5.1,18.445,0,12.5-6.715,20.23Q63.07,1.02,52.615,1.02Zm0-6.8a13.056,13.056,0,0,0,11.9-6.545q3.315-5.44,3.315-14.28,0-10.285-4.335-16.065a12.851,12.851,0,0,0-10.88-5.355,13.045,13.045,0,0,0-11.9,6.885Q37.4-35.53,37.4-26.605q0,10.2,4.335,15.725A13.079,13.079,0,0,0,52.615-5.78Z" transform="translate(847 869)" fill="#707070"/>
  </g>
</svg>
